<?xml version="1.0" standalone="no"?>
<!DOCTYPE svg PUBLIC "-//W3C//DTD SVG 20010904//EN"
 "http://www.w3.org/TR/2001/REC-SVG-20010904/DTD/svg10.dtd">
<svg version="1.0" xmlns="http://www.w3.org/2000/svg"
 width="243.000000pt" height="243.000000pt" viewBox="0 0 243.000000 243.000000"
 preserveAspectRatio="xMidYMid meet">
<metadata>
Created by potrace 1.14, written by Peter Selinger 2001-2017
</metadata>
<g transform="translate(0.000000,243.000000) scale(0.100000,-0.100000)"
fill="#000000" stroke="none">
<path d="M145 2263 c-41 -11 -103 -63 -123 -105 -21 -41 -21 -55 -22 -575 l0
-533 1215 0 1216 0 -3 543 -3 544 -29 41 c-16 23 -45 52 -65 65 l-36 22 -1065
1 c-586 1 -1074 0 -1085 -3z"/>
<path d="M2 801 l3 -169 31 -43 c18 -24 52 -54 75 -66 43 -22 51 -22 422 -23
l377 0 0 -90 0 -90 -140 0 c-136 0 -142 -1 -165 -25 -32 -31 -32 -69 0 -100
l24 -25 601 0 601 0 24 25 c32 31 32 69 0 100 -23 24 -28 25 -175 25 l-150 0
0 90 0 89 378 3 c360 3 379 4 417 24 22 11 54 40 70 63 l30 43 3 169 4 169
-1217 0 -1217 0 4 -169z"/>
</g>
</svg>
